<mxfile host="app.diagrams.net" agent="Mozilla/5.0 (Macintosh; Intel Mac OS X 10_15_7) AppleWebKit/537.36 (KHTML, like Gecko) Chrome/132.0.0.0 Safari/537.36" version="26.0.10">
  <diagram name="Page-1" id="mpW6AhN68Vn9ISKh322Q">
    <mxGraphModel dx="963" dy="830" grid="0" gridSize="10" guides="1" tooltips="1" connect="1" arrows="1" fold="1" page="0" pageScale="1" pageWidth="850" pageHeight="1100" math="0" shadow="0">
      <root>
        <mxCell id="0" />
        <mxCell id="1" parent="0" />
        <mxCell id="NJWP0eBdP3ZcLHclyF9u-3" value="WORKFLOW" style="whiteSpace=wrap;html=1;shadow=0;labelPosition=center;verticalLabelPosition=bottom;align=center;verticalAlign=top;fontStyle=1" vertex="1" parent="1">
          <mxGeometry x="620" y="246" width="414" height="437" as="geometry" />
        </mxCell>
        <mxCell id="NJWP0eBdP3ZcLHclyF9u-48" style="edgeStyle=orthogonalEdgeStyle;rounded=0;orthogonalLoop=1;jettySize=auto;html=1;entryX=0;entryY=0.5;entryDx=0;entryDy=0;strokeWidth=2;" edge="1" parent="1" source="NJWP0eBdP3ZcLHclyF9u-2" target="NJWP0eBdP3ZcLHclyF9u-3">
          <mxGeometry relative="1" as="geometry" />
        </mxCell>
        <mxCell id="NJWP0eBdP3ZcLHclyF9u-2" value="Developer" style="sketch=0;outlineConnect=0;fontColor=#232F3E;gradientColor=none;fillColor=#232F3D;strokeColor=none;dashed=0;verticalLabelPosition=bottom;verticalAlign=top;align=center;html=1;fontSize=12;fontStyle=1;aspect=fixed;pointerEvents=1;shape=mxgraph.aws4.user;" vertex="1" parent="1">
          <mxGeometry x="475" y="435.5" width="58" height="58" as="geometry" />
        </mxCell>
        <mxCell id="NJWP0eBdP3ZcLHclyF9u-27" style="edgeStyle=orthogonalEdgeStyle;rounded=0;orthogonalLoop=1;jettySize=auto;html=1;strokeWidth=2;" edge="1" parent="1">
          <mxGeometry relative="1" as="geometry">
            <mxPoint x="930" y="621" as="sourcePoint" />
            <mxPoint x="1350" y="656.0526315789473" as="targetPoint" />
            <Array as="points">
              <mxPoint x="930" y="656" />
            </Array>
          </mxGeometry>
        </mxCell>
        <mxCell id="NJWP0eBdP3ZcLHclyF9u-28" value="&amp;nbsp; Allow to deploy resources&amp;nbsp;&amp;nbsp;" style="edgeLabel;html=1;align=center;verticalAlign=middle;resizable=0;points=[];fontSize=15;spacingLeft=0;spacingRight=0;spacing=2;fontStyle=1" vertex="1" connectable="0" parent="NJWP0eBdP3ZcLHclyF9u-27">
          <mxGeometry x="0.0281" y="-2" relative="1" as="geometry">
            <mxPoint x="30" y="-1" as="offset" />
          </mxGeometry>
        </mxCell>
        <mxCell id="NJWP0eBdP3ZcLHclyF9u-9" value="" style="shape=image;verticalLabelPosition=bottom;labelBackgroundColor=default;verticalAlign=top;aspect=fixed;imageAspect=0;image=https://seeklogo.com/images/G/gitlab-logo-8862C2F80F-seeklogo.com.png;clipPath=inset(38.67% 4.33% 39% 3.67%);" vertex="1" parent="1">
          <mxGeometry x="632" y="257" width="152.41" height="37" as="geometry" />
        </mxCell>
        <mxCell id="NJWP0eBdP3ZcLHclyF9u-42" style="edgeStyle=orthogonalEdgeStyle;rounded=0;orthogonalLoop=1;jettySize=auto;html=1;strokeWidth=2;" edge="1" parent="1" source="NJWP0eBdP3ZcLHclyF9u-10" target="NJWP0eBdP3ZcLHclyF9u-18">
          <mxGeometry relative="1" as="geometry" />
        </mxCell>
        <mxCell id="NJWP0eBdP3ZcLHclyF9u-47" value="&lt;b&gt;&lt;font style=&quot;font-size: 15px;&quot;&gt;&amp;nbsp; &amp;nbsp;JWT&amp;nbsp; &amp;nbsp;&lt;/font&gt;&lt;/b&gt;" style="edgeLabel;html=1;align=center;verticalAlign=middle;resizable=0;points=[];" vertex="1" connectable="0" parent="NJWP0eBdP3ZcLHclyF9u-42">
          <mxGeometry x="-0.0527" relative="1" as="geometry">
            <mxPoint as="offset" />
          </mxGeometry>
        </mxCell>
        <mxCell id="NJWP0eBdP3ZcLHclyF9u-10" value="" style="shape=image;verticalLabelPosition=bottom;labelBackgroundColor=default;verticalAlign=top;aspect=fixed;imageAspect=0;image=https://www.loginradius.com/wp-content/uploads/2020/01/PNG_OpenID-e1672262626156.png;" vertex="1" parent="1">
          <mxGeometry x="870" y="298.5" width="132.13" height="49" as="geometry" />
        </mxCell>
        <mxCell id="NJWP0eBdP3ZcLHclyF9u-15" value="AWS Cloud" style="points=[[0,0],[0.25,0],[0.5,0],[0.75,0],[1,0],[1,0.25],[1,0.5],[1,0.75],[1,1],[0.75,1],[0.5,1],[0.25,1],[0,1],[0,0.75],[0,0.5],[0,0.25]];outlineConnect=0;gradientColor=none;html=1;whiteSpace=wrap;fontSize=12;fontStyle=0;container=0;pointerEvents=0;collapsible=0;recursiveResize=0;shape=mxgraph.aws4.group;grIcon=mxgraph.aws4.group_aws_cloud;strokeColor=#232F3E;fillColor=none;verticalAlign=top;align=left;spacingLeft=30;fontColor=#232F3E;dashed=0;" vertex="1" parent="1">
          <mxGeometry x="1287" y="246" width="368" height="544" as="geometry" />
        </mxCell>
        <mxCell id="NJWP0eBdP3ZcLHclyF9u-17" value="" style="shape=image;verticalLabelPosition=bottom;labelBackgroundColor=default;verticalAlign=top;aspect=fixed;imageAspect=0;image=https://img.icons8.com/color/200/amazon-web-services.png;clipPath=inset(20% 0% 14.5% 0%);" vertex="1" parent="1">
          <mxGeometry x="1561.87" y="158" width="93.13" height="61" as="geometry" />
        </mxCell>
        <mxCell id="NJWP0eBdP3ZcLHclyF9u-19" value="Temporary Token" style="sketch=0;outlineConnect=0;fontColor=#232F3E;gradientColor=none;fillColor=#DD344C;strokeColor=none;dashed=0;verticalLabelPosition=bottom;verticalAlign=top;align=center;html=1;fontSize=12;fontStyle=1;aspect=fixed;pointerEvents=1;shape=mxgraph.aws4.temporary_security_credential;" vertex="1" parent="1">
          <mxGeometry x="1132" y="358.25" width="58" height="58.75" as="geometry" />
        </mxCell>
        <mxCell id="NJWP0eBdP3ZcLHclyF9u-43" style="edgeStyle=orthogonalEdgeStyle;rounded=0;orthogonalLoop=1;jettySize=auto;html=1;fontStyle=1;strokeWidth=2;endArrow=none;startFill=0;" edge="1" parent="1" source="NJWP0eBdP3ZcLHclyF9u-18" target="NJWP0eBdP3ZcLHclyF9u-19">
          <mxGeometry relative="1" as="geometry">
            <Array as="points">
              <mxPoint x="1376" y="388" />
            </Array>
          </mxGeometry>
        </mxCell>
        <mxCell id="NJWP0eBdP3ZcLHclyF9u-18" value="IAM" style="sketch=0;points=[[0,0,0],[0.25,0,0],[0.5,0,0],[0.75,0,0],[1,0,0],[0,1,0],[0.25,1,0],[0.5,1,0],[0.75,1,0],[1,1,0],[0,0.25,0],[0,0.5,0],[0,0.75,0],[1,0.25,0],[1,0.5,0],[1,0.75,0]];outlineConnect=0;fontColor=#232F3E;fillColor=#DD344C;strokeColor=#ffffff;dashed=0;verticalLabelPosition=top;verticalAlign=bottom;align=center;html=1;fontSize=12;fontStyle=1;aspect=fixed;shape=mxgraph.aws4.resourceIcon;resIcon=mxgraph.aws4.identity_and_access_management;labelPosition=center;" vertex="1" parent="1">
          <mxGeometry x="1347" y="294" width="58" height="58" as="geometry" />
        </mxCell>
        <mxCell id="NJWP0eBdP3ZcLHclyF9u-32" style="edgeStyle=orthogonalEdgeStyle;rounded=0;orthogonalLoop=1;jettySize=auto;html=1;strokeWidth=2;" edge="1" parent="1" source="NJWP0eBdP3ZcLHclyF9u-20" target="NJWP0eBdP3ZcLHclyF9u-21">
          <mxGeometry relative="1" as="geometry" />
        </mxCell>
        <mxCell id="NJWP0eBdP3ZcLHclyF9u-20" value="Policy" style="sketch=0;outlineConnect=0;fontColor=#232F3E;gradientColor=none;fillColor=#DD344C;strokeColor=none;dashed=0;verticalLabelPosition=bottom;verticalAlign=top;align=center;html=1;fontSize=12;fontStyle=1;aspect=fixed;pointerEvents=1;shape=mxgraph.aws4.permissions;" vertex="1" parent="1">
          <mxGeometry x="1516" y="389" width="40" height="50.33" as="geometry" />
        </mxCell>
        <mxCell id="NJWP0eBdP3ZcLHclyF9u-33" style="edgeStyle=orthogonalEdgeStyle;rounded=0;orthogonalLoop=1;jettySize=auto;html=1;entryX=0.75;entryY=0;entryDx=0;entryDy=0;strokeWidth=2;" edge="1" parent="1" source="NJWP0eBdP3ZcLHclyF9u-21" target="NJWP0eBdP3ZcLHclyF9u-8">
          <mxGeometry relative="1" as="geometry">
            <Array as="points">
              <mxPoint x="1396" y="490" />
              <mxPoint x="959" y="490" />
            </Array>
          </mxGeometry>
        </mxCell>
        <mxCell id="NJWP0eBdP3ZcLHclyF9u-37" value="&lt;font&gt;&lt;b&gt;&amp;nbsp; &amp;nbsp;Assume Role&amp;nbsp; &amp;nbsp;&lt;/b&gt;&lt;/font&gt;" style="edgeLabel;html=1;align=center;verticalAlign=middle;resizable=0;points=[];fontSize=15;" vertex="1" connectable="0" parent="NJWP0eBdP3ZcLHclyF9u-33">
          <mxGeometry x="-0.0477" relative="1" as="geometry">
            <mxPoint x="11" y="1" as="offset" />
          </mxGeometry>
        </mxCell>
        <mxCell id="NJWP0eBdP3ZcLHclyF9u-21" value="Target Role" style="sketch=0;outlineConnect=0;fontColor=#232F3E;gradientColor=none;fillColor=#DD344C;strokeColor=none;dashed=0;verticalLabelPosition=bottom;verticalAlign=top;align=center;html=1;fontSize=12;fontStyle=1;aspect=fixed;pointerEvents=1;shape=mxgraph.aws4.role;" vertex="1" parent="1">
          <mxGeometry x="1374" y="475" width="58" height="32.72" as="geometry" />
        </mxCell>
        <mxCell id="NJWP0eBdP3ZcLHclyF9u-23" value="VPC" style="points=[[0,0],[0.25,0],[0.5,0],[0.75,0],[1,0],[1,0.25],[1,0.5],[1,0.75],[1,1],[0.75,1],[0.5,1],[0.25,1],[0,1],[0,0.75],[0,0.5],[0,0.25]];outlineConnect=0;gradientColor=none;html=1;whiteSpace=wrap;fontSize=12;fontStyle=0;container=1;pointerEvents=0;collapsible=0;recursiveResize=0;shape=mxgraph.aws4.group;grIcon=mxgraph.aws4.group_vpc2;strokeColor=#8C4FFF;fillColor=none;verticalAlign=top;align=left;spacingLeft=30;fontColor=#AAB7B8;dashed=0;" vertex="1" parent="1">
          <mxGeometry x="1350" y="572" width="246" height="152" as="geometry" />
        </mxCell>
        <mxCell id="NJWP0eBdP3ZcLHclyF9u-24" value="EC2" style="sketch=0;points=[[0,0,0],[0.25,0,0],[0.5,0,0],[0.75,0,0],[1,0,0],[0,1,0],[0.25,1,0],[0.5,1,0],[0.75,1,0],[1,1,0],[0,0.25,0],[0,0.5,0],[0,0.75,0],[1,0.25,0],[1,0.5,0],[1,0.75,0]];outlineConnect=0;fontColor=#232F3E;fillColor=#ED7100;strokeColor=#ffffff;dashed=0;verticalLabelPosition=bottom;verticalAlign=top;align=center;html=1;fontSize=12;fontStyle=1;aspect=fixed;shape=mxgraph.aws4.resourceIcon;resIcon=mxgraph.aws4.ec2;" vertex="1" parent="NJWP0eBdP3ZcLHclyF9u-23">
          <mxGeometry x="47" y="47" width="58" height="58" as="geometry" />
        </mxCell>
        <mxCell id="NJWP0eBdP3ZcLHclyF9u-25" value="RDS" style="sketch=0;points=[[0,0,0],[0.25,0,0],[0.5,0,0],[0.75,0,0],[1,0,0],[0,1,0],[0.25,1,0],[0.5,1,0],[0.75,1,0],[1,1,0],[0,0.25,0],[0,0.5,0],[0,0.75,0],[1,0.25,0],[1,0.5,0],[1,0.75,0]];outlineConnect=0;fontColor=#232F3E;fillColor=#C925D1;strokeColor=#ffffff;dashed=0;verticalLabelPosition=bottom;verticalAlign=top;align=center;html=1;fontSize=12;fontStyle=1;aspect=fixed;shape=mxgraph.aws4.resourceIcon;resIcon=mxgraph.aws4.rds;" vertex="1" parent="NJWP0eBdP3ZcLHclyF9u-23">
          <mxGeometry x="148" y="47" width="58" height="58" as="geometry" />
        </mxCell>
        <mxCell id="NJWP0eBdP3ZcLHclyF9u-31" value="4" style="ellipse;whiteSpace=wrap;html=1;aspect=fixed;fontSize=18;labelBackgroundColor=none;fillColor=#dae8fc;strokeColor=#6c8ebf;fontStyle=1" vertex="1" parent="1">
          <mxGeometry x="1152" y="621" width="25" height="25" as="geometry" />
        </mxCell>
        <mxCell id="NJWP0eBdP3ZcLHclyF9u-36" value="3" style="ellipse;whiteSpace=wrap;html=1;aspect=fixed;fontSize=18;labelBackgroundColor=none;fillColor=#dae8fc;strokeColor=#6c8ebf;fontStyle=1" vertex="1" parent="1">
          <mxGeometry x="1152" y="505" width="25" height="25" as="geometry" />
        </mxCell>
        <mxCell id="NJWP0eBdP3ZcLHclyF9u-38" value="" style="group" vertex="1" connectable="0" parent="1">
          <mxGeometry x="674" y="518.0013043478261" width="310.5" height="99.99869565217386" as="geometry" />
        </mxCell>
        <mxCell id="NJWP0eBdP3ZcLHclyF9u-4" value="&lt;b&gt;BUILD&lt;/b&gt;" style="shape=step;perimeter=stepPerimeter;whiteSpace=wrap;html=1;fixedSize=1;labelBackgroundColor=none;fillColor=#d5e8d4;strokeColor=#82b366;" vertex="1" parent="NJWP0eBdP3ZcLHclyF9u-38">
          <mxGeometry y="29.998695652173865" width="103" height="70" as="geometry" />
        </mxCell>
        <mxCell id="NJWP0eBdP3ZcLHclyF9u-7" value="&lt;b&gt;TEST&lt;/b&gt;" style="shape=step;perimeter=stepPerimeter;whiteSpace=wrap;html=1;fixedSize=1;labelBackgroundColor=none;fillColor=#fff2cc;strokeColor=#d6b656;" vertex="1" parent="NJWP0eBdP3ZcLHclyF9u-38">
          <mxGeometry x="104.5" y="29.998695652173865" width="103" height="70" as="geometry" />
        </mxCell>
        <mxCell id="NJWP0eBdP3ZcLHclyF9u-8" value="&lt;b&gt;DEPLOY&lt;/b&gt;" style="shape=step;perimeter=stepPerimeter;whiteSpace=wrap;html=1;fixedSize=1;labelBackgroundColor=none;fillColor=#dae8fc;strokeColor=#6c8ebf;" vertex="1" parent="NJWP0eBdP3ZcLHclyF9u-38">
          <mxGeometry x="207.5" y="29.998695652173865" width="103" height="70" as="geometry" />
        </mxCell>
        <mxCell id="NJWP0eBdP3ZcLHclyF9u-12" value="" style="shape=image;verticalLabelPosition=bottom;labelBackgroundColor=default;verticalAlign=top;aspect=fixed;imageAspect=0;image=https://cdn-icons-png.freepik.com/512/5610/5610944.png;" vertex="1" parent="NJWP0eBdP3ZcLHclyF9u-38">
          <mxGeometry x="39.503043478260906" width="24" height="24" as="geometry" />
        </mxCell>
        <mxCell id="NJWP0eBdP3ZcLHclyF9u-13" value="" style="shape=image;verticalLabelPosition=bottom;labelBackgroundColor=default;verticalAlign=top;aspect=fixed;imageAspect=0;image=https://cdn-icons-png.freepik.com/512/5610/5610944.png;" vertex="1" parent="NJWP0eBdP3ZcLHclyF9u-38">
          <mxGeometry x="144.0030434782609" width="24" height="24" as="geometry" />
        </mxCell>
        <mxCell id="NJWP0eBdP3ZcLHclyF9u-14" value="" style="shape=image;verticalLabelPosition=bottom;labelBackgroundColor=default;verticalAlign=top;aspect=fixed;imageAspect=0;image=https://cdn-icons-png.freepik.com/512/5610/5610944.png;" vertex="1" parent="NJWP0eBdP3ZcLHclyF9u-38">
          <mxGeometry x="247.0030434782609" width="24" height="24" as="geometry" />
        </mxCell>
        <mxCell id="NJWP0eBdP3ZcLHclyF9u-44" style="edgeStyle=orthogonalEdgeStyle;rounded=0;orthogonalLoop=1;jettySize=auto;html=1;entryX=0.997;entryY=0.323;entryDx=0;entryDy=0;entryPerimeter=0;strokeWidth=2;" edge="1" parent="1" source="NJWP0eBdP3ZcLHclyF9u-19" target="NJWP0eBdP3ZcLHclyF9u-3">
          <mxGeometry relative="1" as="geometry" />
        </mxCell>
        <mxCell id="NJWP0eBdP3ZcLHclyF9u-45" value="2" style="ellipse;whiteSpace=wrap;html=1;aspect=fixed;fontSize=18;labelBackgroundColor=none;fillColor=#dae8fc;strokeColor=#6c8ebf;fontStyle=1" vertex="1" parent="1">
          <mxGeometry x="1203" y="395" width="25" height="25" as="geometry" />
        </mxCell>
        <mxCell id="NJWP0eBdP3ZcLHclyF9u-46" value="1" style="ellipse;whiteSpace=wrap;html=1;aspect=fixed;fontSize=18;labelBackgroundColor=none;fillColor=#dae8fc;strokeColor=#6c8ebf;fontStyle=1" vertex="1" parent="1">
          <mxGeometry x="1155" y="269" width="25" height="25" as="geometry" />
        </mxCell>
      </root>
    </mxGraphModel>
  </diagram>
</mxfile>
